<svg width="91" height="23" viewBox="0 0 91 23" fill="none" xmlns="http://www.w3.org/2000/svg">
<path d="M10.1809 13.4648C10.1809 12.8633 9.96609 12.3945 9.53641 12.0586C9.11453 11.7227 8.36844 11.375 7.29813 11.0156C6.22781 10.6562 5.35281 10.3086 4.67313 9.97266C2.46219 8.88672 1.35672 7.39453 1.35672 5.49609C1.35672 4.55078 1.63016 3.71875 2.17703 3C2.73172 2.27344 3.51297 1.71094 4.52078 1.3125C5.52859 0.90625 6.66141 0.703125 7.91922 0.703125C9.14578 0.703125 10.2434 0.921875 11.2122 1.35938C12.1888 1.79687 12.9466 2.42188 13.4856 3.23438C14.0247 4.03906 14.2942 4.96094 14.2942 6H10.1927C10.1927 5.30469 9.97781 4.76562 9.54813 4.38281C9.12625 4 8.55203 3.80859 7.82547 3.80859C7.09109 3.80859 6.50906 3.97266 6.07938 4.30078C5.6575 4.62109 5.44656 5.03125 5.44656 5.53125C5.44656 5.96875 5.68094 6.36719 6.14969 6.72656C6.61844 7.07812 7.44266 7.44531 8.62234 7.82812C9.80203 8.20312 10.7708 8.60938 11.5286 9.04688C13.3723 10.1094 14.2942 11.5742 14.2942 13.4414C14.2942 14.9336 13.7317 16.1055 12.6067 16.957C11.4817 17.8086 9.93875 18.2344 7.97781 18.2344C6.595 18.2344 5.34109 17.9883 4.21609 17.4961C3.09891 16.9961 2.25516 16.3164 1.68484 15.457C1.12234 14.5898 0.841095 13.5938 0.841095 12.4688H4.96609C4.96609 13.3828 5.20047 14.0586 5.66922 14.4961C6.14578 14.9258 6.91531 15.1406 7.97781 15.1406C8.6575 15.1406 9.19266 14.9961 9.58328 14.707C9.98172 14.4102 10.1809 13.9961 10.1809 13.4648ZM26.9331 12.7969L28.2105 5.32031H31.9956L29.0073 18H25.6675L23.5698 10.4766L21.4605 18H18.1206L15.1323 5.32031H18.9175L20.1714 12.9727L22.187 5.32031H24.9409L26.9331 12.7969ZM37.3455 18H33.3845V5.32031H37.3455V18ZM33.1502 2.05078C33.1502 1.48828 33.3533 1.02734 33.7595 0.667969C34.1658 0.308594 34.6931 0.128906 35.3416 0.128906C35.99 0.128906 36.5173 0.308594 36.9236 0.667969C37.3298 1.02734 37.533 1.48828 37.533 2.05078C37.533 2.61328 37.3298 3.07422 36.9236 3.43359C36.5173 3.79297 35.99 3.97266 35.3416 3.97266C34.6931 3.97266 34.1658 3.79297 33.7595 3.43359C33.3533 3.07422 33.1502 2.61328 33.1502 2.05078ZM39.0859 11.5664C39.0859 10.2852 39.2969 9.15234 39.7188 8.16797C40.1406 7.18359 40.7461 6.42578 41.5352 5.89453C42.3242 5.35547 43.2422 5.08594 44.2891 5.08594C45.6094 5.08594 46.6406 5.53125 47.3828 6.42188L47.5234 5.32031H51.1094V17.5195C51.1094 18.6367 50.8477 19.6055 50.3242 20.4258C49.8086 21.2539 49.0586 21.8867 48.0742 22.3242C47.0898 22.7695 45.9492 22.9922 44.6523 22.9922C43.7227 22.9922 42.8203 22.8164 41.9453 22.4648C41.0781 22.1133 40.4141 21.6562 39.9531 21.0938L41.6055 18.7734C42.3398 19.6406 43.3086 20.0742 44.5117 20.0742C46.2617 20.0742 47.1367 19.1758 47.1367 17.3789V16.9805C46.3789 17.8164 45.4219 18.2344 44.2656 18.2344C42.7188 18.2344 41.4688 17.6445 40.5156 16.4648C39.5625 15.2773 39.0859 13.6914 39.0859 11.707V11.5664ZM43.0469 11.8125C43.0469 12.8516 43.2422 13.6758 43.6328 14.2852C44.0234 14.8867 44.5703 15.1875 45.2734 15.1875C46.125 15.1875 46.7461 14.9023 47.1367 14.332V9C46.7539 8.42188 46.1406 8.13281 45.2969 8.13281C44.5938 8.13281 44.043 8.44922 43.6445 9.08203C43.2461 9.70703 43.0469 10.6172 43.0469 11.8125ZM52.6506 11.5664C52.6506 10.2852 52.8616 9.15234 53.2834 8.16797C53.7053 7.18359 54.3108 6.42578 55.0998 5.89453C55.8889 5.35547 56.8069 5.08594 57.8538 5.08594C59.1741 5.08594 60.2053 5.53125 60.9475 6.42188L61.0881 5.32031H64.6741V17.5195C64.6741 18.6367 64.4123 19.6055 63.8889 20.4258C63.3733 21.2539 62.6233 21.8867 61.6389 22.3242C60.6545 22.7695 59.5139 22.9922 58.217 22.9922C57.2873 22.9922 56.385 22.8164 55.51 22.4648C54.6428 22.1133 53.9788 21.6562 53.5178 21.0938L55.1702 18.7734C55.9045 19.6406 56.8733 20.0742 58.0764 20.0742C59.8264 20.0742 60.7014 19.1758 60.7014 17.3789V16.9805C59.9436 17.8164 58.9866 18.2344 57.8303 18.2344C56.2834 18.2344 55.0334 17.6445 54.0803 16.4648C53.1272 15.2773 52.6506 13.6914 52.6506 11.707V11.5664ZM56.6116 11.8125C56.6116 12.8516 56.8069 13.6758 57.1975 14.2852C57.5881 14.8867 58.135 15.1875 58.8381 15.1875C59.6897 15.1875 60.3108 14.9023 60.7014 14.332V9C60.3186 8.42188 59.7053 8.13281 58.8616 8.13281C58.1584 8.13281 57.6077 8.44922 57.2092 9.08203C56.8108 9.70703 56.6116 10.6172 56.6116 11.8125ZM72.813 18.2344C70.8677 18.2344 69.2934 17.6562 68.0903 16.5C66.8872 15.3359 66.2856 13.8242 66.2856 11.9648V11.6367C66.2856 10.3398 66.5239 9.19531 67.0005 8.20312C67.4848 7.21094 68.188 6.44531 69.1098 5.90625C70.0317 5.35938 71.1255 5.08594 72.3911 5.08594C74.1723 5.08594 75.5786 5.64062 76.6098 6.75C77.6411 7.85156 78.1567 9.39062 78.1567 11.3672V12.9023H70.3052C70.4458 13.6133 70.7544 14.1719 71.2309 14.5781C71.7075 14.9844 72.3247 15.1875 73.0825 15.1875C74.3325 15.1875 75.3091 14.75 76.0122 13.875L77.8169 16.0078C77.3247 16.6875 76.6255 17.2305 75.7192 17.6367C74.8208 18.0352 73.852 18.2344 72.813 18.2344ZM72.3677 8.13281C71.2114 8.13281 70.5239 8.89844 70.3052 10.4297H74.2895V10.125C74.3052 9.49219 74.145 9.00391 73.8091 8.66016C73.4731 8.30859 72.9927 8.13281 72.3677 8.13281ZM79.0183 11.5664C79.0183 9.55859 79.4519 7.97656 80.3191 6.82031C81.1862 5.66406 82.3972 5.08594 83.9519 5.08594C85.0847 5.08594 86.0378 5.53125 86.8112 6.42188V0H90.7722V18H87.2214L87.0222 16.6406C86.2097 17.7031 85.1784 18.2344 83.9284 18.2344C82.4206 18.2344 81.2253 17.6562 80.3425 16.5C79.4597 15.3438 79.0183 13.6992 79.0183 11.5664ZM82.9675 11.8125C82.9675 14.0625 83.6237 15.1875 84.9362 15.1875C85.8112 15.1875 86.4362 14.8203 86.8112 14.0859V9.25781C86.4519 8.50781 85.8347 8.13281 84.9597 8.13281C83.7409 8.13281 83.0808 9.11719 82.9792 11.0859L82.9675 11.8125Z" fill="#211a23"/>
</svg>
