<svg width="88" height="16" viewBox="0 0 88 16" fill="none" xmlns="http://www.w3.org/2000/svg">
<path d="M5.04734 13.12C5.95401 13.12 6.61401 12.9667 7.02734 12.66C7.44068 12.3533 7.64734 11.92 7.64734 11.36C7.64734 11.0267 7.57401 10.74 7.42734 10.5C7.29401 10.26 7.09401 10.0467 6.82734 9.86C6.57401 9.66 6.26068 9.48 5.88734 9.32C5.51401 9.14667 5.08734 8.98 4.60734 8.82C4.12734 8.64667 3.66068 8.46 3.20734 8.26C2.76734 8.04667 2.37401 7.78667 2.02734 7.48C1.69401 7.17333 1.42068 6.80667 1.20734 6.38C1.00734 5.95333 0.907344 5.44 0.907344 4.84C0.907344 3.58667 1.34068 2.60667 2.20734 1.9C3.07401 1.18 4.25401 0.819999 5.74734 0.819999C6.61401 0.819999 7.38068 0.919999 8.04734 1.12C8.72734 1.30667 9.26068 1.51333 9.64734 1.74L8.86734 3.78C8.41401 3.52667 7.91401 3.33333 7.36734 3.2C6.83401 3.06667 6.28068 3 5.70734 3C5.02734 3 4.49401 3.14 4.10734 3.42C3.73401 3.7 3.54734 4.09333 3.54734 4.6C3.54734 4.90667 3.60734 5.17333 3.72734 5.4C3.86068 5.61333 4.04068 5.80667 4.26734 5.98C4.50734 6.15333 4.78068 6.31333 5.08734 6.46C5.40734 6.60667 5.75401 6.74667 6.12734 6.88C6.78068 7.12 7.36068 7.36667 7.86734 7.62C8.38734 7.86 8.82068 8.15333 9.16734 8.5C9.52734 8.83333 9.80068 9.23333 9.98734 9.7C10.174 10.1533 10.2673 10.7067 10.2673 11.36C10.2673 12.6133 9.82068 13.5867 8.92734 14.28C8.04734 14.96 6.75401 15.3 5.04734 15.3C4.47401 15.3 3.94734 15.26 3.46734 15.18C3.00068 15.1133 2.58068 15.0267 2.20734 14.92C1.84734 14.8133 1.53401 14.7067 1.26734 14.6C1.00068 14.48 0.787344 14.3733 0.627344 14.28L1.36734 12.22C1.72734 12.42 2.21401 12.62 2.82734 12.82C3.44068 13.02 4.18068 13.12 5.04734 13.12ZM21.3681 2.7C21.5815 3.42 21.8081 4.17333 22.0481 4.96C22.2881 5.73333 22.5348 6.51333 22.7881 7.3C23.0548 8.07333 23.3148 8.84 23.5681 9.6C23.8348 10.3467 24.0881 11.0533 24.3281 11.72C24.5281 11 24.7215 10.22 24.9081 9.38C25.0948 8.52667 25.2815 7.64667 25.4681 6.74C25.6548 5.82 25.8348 4.88667 26.0081 3.94C26.1948 2.99333 26.3681 2.06 26.5281 1.14H29.1281C28.6615 3.64667 28.1415 6.06 27.5681 8.38C26.9948 10.6867 26.3548 12.8933 25.6481 15H23.2481C22.2081 12.3067 21.2015 9.36667 20.2281 6.18C19.7348 7.79333 19.2348 9.32667 18.7281 10.78C18.2215 12.2333 17.7148 13.64 17.2081 15H14.8081C14.0881 12.8933 13.4415 10.6867 12.8681 8.38C12.3081 6.06 11.7948 3.64667 11.3281 1.14H14.0281C14.1881 2.04667 14.3548 2.97333 14.5281 3.92C14.7148 4.86667 14.9015 5.8 15.0881 6.72C15.2881 7.62667 15.4881 8.50667 15.6881 9.36C15.8881 10.2133 16.0881 11 16.2881 11.72C16.5415 11.04 16.7948 10.3267 17.0481 9.58C17.3148 8.82 17.5748 8.05333 17.8281 7.28C18.0815 6.49333 18.3215 5.71333 18.5481 4.94C18.7881 4.16667 19.0081 3.42 19.2081 2.7H21.3681ZM31.2577 1.14H33.7777V15H31.2577V1.14ZM43.5775 3.04C42.1508 3.04 41.0575 3.48667 40.2975 4.38C39.5508 5.26 39.1775 6.48667 39.1775 8.06C39.1775 8.80667 39.2642 9.49333 39.4375 10.12C39.6242 10.7333 39.8908 11.26 40.2375 11.7C40.5975 12.14 41.0375 12.4867 41.5575 12.74C42.0908 12.98 42.7108 13.1 43.4175 13.1C43.8575 13.1 44.2375 13.0867 44.5575 13.06C44.8775 13.02 45.1308 12.9733 45.3175 12.92V7.94H47.8375V14.6C47.4908 14.7333 46.9042 14.88 46.0775 15.04C45.2508 15.2 44.2975 15.28 43.2175 15.28C42.2175 15.28 41.3042 15.12 40.4775 14.8C39.6508 14.48 38.9442 14.0133 38.3575 13.4C37.7842 12.7867 37.3375 12.0333 37.0175 11.14C36.6975 10.2467 36.5375 9.22 36.5375 8.06C36.5375 6.9 36.7108 5.87333 37.0575 4.98C37.4175 4.08667 37.9042 3.33333 38.5175 2.72C39.1308 2.09333 39.8508 1.62 40.6775 1.3C41.5042 0.979999 42.3842 0.819999 43.3175 0.819999C43.9575 0.819999 44.5242 0.866666 45.0175 0.96C45.5242 1.04 45.9575 1.13333 46.3175 1.24C46.6775 1.34667 46.9708 1.46 47.1975 1.58C47.4375 1.7 47.6042 1.78667 47.6975 1.84L46.9375 3.9C46.5375 3.66 46.0375 3.46 45.4375 3.3C44.8508 3.12667 44.2308 3.04 43.5775 3.04ZM57.2298 3.04C55.8032 3.04 54.7098 3.48667 53.9498 4.38C53.2032 5.26 52.8298 6.48667 52.8298 8.06C52.8298 8.80667 52.9165 9.49333 53.0898 10.12C53.2765 10.7333 53.5432 11.26 53.8898 11.7C54.2498 12.14 54.6898 12.4867 55.2098 12.74C55.7432 12.98 56.3632 13.1 57.0698 13.1C57.5098 13.1 57.8898 13.0867 58.2098 13.06C58.5298 13.02 58.7832 12.9733 58.9698 12.92V7.94H61.4898V14.6C61.1432 14.7333 60.5565 14.88 59.7298 15.04C58.9032 15.2 57.9498 15.28 56.8698 15.28C55.8698 15.28 54.9565 15.12 54.1298 14.8C53.3032 14.48 52.5965 14.0133 52.0098 13.4C51.4365 12.7867 50.9898 12.0333 50.6698 11.14C50.3498 10.2467 50.1898 9.22 50.1898 8.06C50.1898 6.9 50.3632 5.87333 50.7098 4.98C51.0698 4.08667 51.5565 3.33333 52.1698 2.72C52.7832 2.09333 53.5032 1.62 54.3298 1.3C55.1565 0.979999 56.0365 0.819999 56.9698 0.819999C57.6098 0.819999 58.1765 0.866666 58.6698 0.96C59.1765 1.04 59.6098 1.13333 59.9698 1.24C60.3298 1.34667 60.6232 1.46 60.8498 1.58C61.0898 1.7 61.2565 1.78667 61.3498 1.84L60.5898 3.9C60.1898 3.66 59.6898 3.46 59.0898 3.3C58.5032 3.12667 57.8832 3.04 57.2298 3.04ZM64.4022 15V1.14H73.3022V3.28H66.9222V6.7H72.6022V8.8H66.9222V12.86H73.7822V15H64.4022ZM78.6409 12.92C78.7876 12.9333 78.9809 12.9467 79.2209 12.96C79.4609 12.96 79.7876 12.96 80.2009 12.96C81.8943 12.96 83.1543 12.5333 83.9809 11.68C84.8209 10.8133 85.2409 9.60667 85.2409 8.06C85.2409 6.48667 84.8343 5.28 84.0209 4.44C83.2076 3.6 81.9476 3.18 80.2409 3.18C79.4943 3.18 78.9609 3.2 78.6409 3.24V12.92ZM87.8809 8.06C87.8809 9.26 87.6943 10.3067 87.3209 11.2C86.9476 12.08 86.4143 12.82 85.7209 13.42C85.0409 14.0067 84.2143 14.4467 83.2409 14.74C82.2809 15.02 81.2143 15.16 80.0409 15.16C79.4809 15.16 78.8476 15.1333 78.1409 15.08C77.4343 15.04 76.7609 14.9467 76.1209 14.8V1.34C76.7609 1.19333 77.4409 1.1 78.1609 1.06C78.8809 1.02 79.5209 0.999999 80.0809 0.999999C81.2409 0.999999 82.3009 1.14 83.2609 1.42C84.2209 1.68667 85.0409 2.11333 85.7209 2.7C86.4143 3.27333 86.9476 4.00667 87.3209 4.9C87.6943 5.78 87.8809 6.83333 87.8809 8.06Z" fill="#211a23"/>
</svg>
